<?xml version="1.0" encoding="UTF-8" standalone="no"?>
<!-- Created with Inkscape (http://www.inkscape.org/) -->

<svg
   xmlns:dc="http://purl.org/dc/elements/1.1/"
   xmlns:cc="http://creativecommons.org/ns#"
   xmlns:rdf="http://www.w3.org/1999/02/22-rdf-syntax-ns#"
   xmlns:svg="http://www.w3.org/2000/svg"
   xmlns="http://www.w3.org/2000/svg"
   xmlns:sodipodi="http://sodipodi.sourceforge.net/DTD/sodipodi-0.dtd"
   xmlns:inkscape="http://www.inkscape.org/namespaces/inkscape"
   width="64"
   height="512"
   id="svg5509"
   version="1.1"
   inkscape:version="0.48.3.1 r9886"
   sodipodi:docname="elements.svg"
   inkscape:export-filename="/home/jtmasse/git/selene/Project/gui_data/elements.png"
   inkscape:export-xdpi="90"
   inkscape:export-ydpi="90">
  <defs
     id="defs5511" />
  <sodipodi:namedview
     id="base"
     pagecolor="#ffffff"
     bordercolor="#666666"
     borderopacity="1.0"
     inkscape:pageopacity="0.0"
     inkscape:pageshadow="2"
     inkscape:zoom="1.979899"
     inkscape:cx="64.875683"
     inkscape:cy="290.27218"
     inkscape:document-units="px"
     inkscape:current-layer="layer1"
     showgrid="false"
     showguides="true"
     inkscape:guide-bbox="true"
     inkscape:window-width="1301"
     inkscape:window-height="744"
     inkscape:window-x="65"
     inkscape:window-y="24"
     inkscape:window-maximized="1" />
  <metadata
     id="metadata5514">
    <rdf:RDF>
      <cc:Work
         rdf:about="">
        <dc:format>image/svg+xml</dc:format>
        <dc:type
           rdf:resource="http://purl.org/dc/dcmitype/StillImage" />
        <dc:title></dc:title>
      </cc:Work>
    </rdf:RDF>
  </metadata>
  <g
     inkscape:label="Calque 1"
     inkscape:groupmode="layer"
     id="layer1"
     transform="translate(0,-540.36218)">
    <path
       style="fill:none;stroke:#786318;stroke-width:0.99999994px;stroke-linecap:butt;stroke-linejoin:miter;stroke-opacity:1"
       d="m 31.993811,595.14123 0.0188,-7.6429"
       id="path6212"
       inkscape:connector-curvature="0"
       inkscape:transform-center-x="0.020341"
       inkscape:transform-center-y="-4.7875173" />
    <path
       inkscape:connector-curvature="0"
       id="path6040"
       d="m 40.005695,591.88344 -3.768679,-4.12771"
       style="fill:none;stroke:#786318;stroke-width:1px;stroke-linecap:butt;stroke-linejoin:miter;stroke-opacity:1" />
    <path
       style="fill:none;stroke:#786318;stroke-width:1px;stroke-linecap:butt;stroke-linejoin:miter;stroke-opacity:1"
       d="m 23.887344,591.88344 3.768679,-4.12771"
       id="path6038"
       inkscape:connector-curvature="0" />
    <path
       transform="matrix(-0.81171547,0,0,0.82554105,57.689496,547.77596)"
       d="m 23.928572,54.142857 a 4.6428571,1.25 0 1 1 -9.285714,0 4.6428571,1.25 0 1 1 9.285714,0 z"
       sodipodi:ry="1.25"
       sodipodi:rx="4.6428571"
       sodipodi:cy="54.142857"
       sodipodi:cx="19.285715"
       id="path6042"
       style="fill:#aeaeae;fill-opacity:1;stroke:#96862e;stroke-width:1.22159934;stroke-linecap:round;stroke-linejoin:round;stroke-miterlimit:4;stroke-opacity:1;stroke-dasharray:none"
       sodipodi:type="arc" />
    <path
       id="path6033"
       style="fill:#aeaeae;fill-opacity:1;stroke:#96862e;stroke-width:1px;stroke-linecap:butt;stroke-linejoin:miter;stroke-opacity:1"
       d="m 29.514947,563.92999 c -14.782551,17.44371 -12.441199,24.73394 2.763232,24.73394 15.204431,0 17.050538,-6.96838 2.763232,-24.73394 -1.466793,-1.82388 -3.778757,-2.06233 -5.526464,0 z"
       inkscape:connector-curvature="0"
       sodipodi:nodetypes="szss" />
    <path
       sodipodi:type="arc"
       style="fill:#aeaeae;fill-opacity:1;stroke:#96862e;stroke-width:1.22159934;stroke-linecap:round;stroke-linejoin:round;stroke-miterlimit:4;stroke-opacity:1;stroke-dasharray:none"
       id="path6036"
       sodipodi:cx="19.285715"
       sodipodi:cy="54.142857"
       sodipodi:rx="4.6428571"
       sodipodi:ry="1.25"
       d="m 23.928572,54.142857 a 4.6428571,1.25 0 1 1 -9.285714,0 4.6428571,1.25 0 1 1 9.285714,0 z"
       transform="matrix(0.81171547,0,0,0.82554105,6.2035427,547.77596)" />
    <path
       style="fill:#aeaeae;fill-opacity:1;stroke:none"
       d="m 41.924602,649.83692 -5.129994,3.43922 -0.153133,3.36904 -2.220445,-1.1932 0.07657,0.84225 8.34581,6.45731 0.535969,-0.28075 -1.30164,-1.61433 4.900292,-2.45658 1.378208,1.05282 0.382835,-0.14038 -0.918805,-1.33357 1.148506,-3.22865 -6.661334,-5.19393 z"
       id="path6083"
       inkscape:connector-curvature="0" />
    <path
       style="fill:none;stroke:#777777;stroke-width:1px;stroke-linecap:butt;stroke-linejoin:miter;stroke-opacity:1"
       d="m 28.547357,565.47941 c 2.25488,1.56361 5.739695,1.45937 7.379608,0.20849"
       id="path6046"
       inkscape:connector-curvature="0"
       sodipodi:nodetypes="cc" />
    <path
       sodipodi:nodetypes="cc"
       inkscape:connector-curvature="0"
       id="path6048"
       d="M 38.694318,587.78684 C 38.181845,580.49002 35.619481,567.2515 34.389547,566.41758"
       style="fill:none;stroke:#777777;stroke-width:1px;stroke-linecap:butt;stroke-linejoin:miter;stroke-opacity:1" />
    <path
       style="fill:none;stroke:#777777;stroke-width:1px;stroke-linecap:butt;stroke-linejoin:miter;stroke-opacity:1"
       d="m 25.26753,587.6826 c 0.585684,-7.19004 3.514099,-20.23483 4.919739,-21.05654"
       id="path6050"
       inkscape:connector-curvature="0"
       sodipodi:nodetypes="cc" />
    <path
       style="fill:none;stroke:#645e46;stroke-width:1px;stroke-linecap:butt;stroke-linejoin:round;stroke-opacity:1"
       d="m 36.679758,653.27614 6.623051,4.70261 5.742531,-3.5094 -6.81447,-4.98336 z"
       id="path6052"
       inkscape:connector-curvature="0"
       sodipodi:nodetypes="ccccc" />
    <path
       style="fill:none;stroke:#645e46;stroke-width:1;stroke-linecap:round;stroke-linejoin:round;stroke-miterlimit:4;stroke-opacity:1"
       d="m 43.60958,662.74284 c -0.03908,0.71935 -2.10846,-0.91423 -4.709378,-2.89632 -2.600918,-1.98209 -4.670297,-3.42104 -4.709379,-4.28145 -0.03908,-0.86039 2.108461,0.91425 4.709379,2.89633 2.600918,1.9821 4.74846,3.56209 4.709378,4.28144 z"
       id="path6054"
       inkscape:connector-curvature="0"
       sodipodi:nodetypes="zszsz" />
    <path
       style="fill:none;stroke:#645e46;stroke-width:1;stroke-linecap:round;stroke-linejoin:round;stroke-miterlimit:4;stroke-opacity:1;stroke-dasharray:none"
       d="m 36.641475,653.27614 0,3.36904"
       id="path6065"
       inkscape:connector-curvature="0" />
    <path
       style="fill:none;stroke:#645e46;stroke-width:1;stroke-linecap:round;stroke-linejoin:round;stroke-miterlimit:4;stroke-opacity:1;stroke-dasharray:none"
       d="m 43.226242,658.04894 -0.918805,2.66715 5.512829,-2.80753 1.225074,-3.36903"
       id="path6067"
       inkscape:connector-curvature="0" />
    <path
       style="fill:none;stroke:#645e46;stroke-width:1;stroke-linecap:round;stroke-linejoin:round;stroke-miterlimit:4;stroke-opacity:1;stroke-dasharray:none"
       d="m 42.001169,649.76674 -0.153134,3.22866 -3.2541,1.57923"
       id="path6069"
       inkscape:connector-curvature="0"
       sodipodi:nodetypes="ccc" />
    <path
       style="fill:none;stroke:#645e46;stroke-width:1;stroke-linecap:round;stroke-linejoin:round;stroke-miterlimit:4;stroke-opacity:1;stroke-dasharray:none"
       d="m 41.848035,653.13578 4.287756,2.9479"
       id="path6071"
       inkscape:connector-curvature="0" />
    <path
       sodipodi:type="arc"
       style="fill:#aeaeae;fill-opacity:1;stroke:#645e46;stroke-width:2.16919422;stroke-linecap:round;stroke-linejoin:round;stroke-miterlimit:4;stroke-opacity:1;stroke-dasharray:none"
       id="path6073"
       sodipodi:cx="22.475895"
       sodipodi:cy="101.87807"
       sodipodi:rx="7.5761442"
       sodipodi:ry="1.2626907"
       d="m 30.052039,101.87807 a 7.5761442,1.2626907 0 1 1 -15.152288,0 7.5761442,1.2626907 0 1 1 15.152288,0 z"
       transform="matrix(0.41375432,-0.24898473,0.1546806,0.42056,13.038191,613.14875)" />
    <path
       sodipodi:nodetypes="czc"
       inkscape:connector-curvature="0"
       id="path6075"
       d="m 47.769202,657.95427 c 0.759408,0.66493 1.098279,1.49507 1.085222,1.73539 -0.01306,0.24033 -0.396748,-0.19031 -1.958199,-1.26013"
       style="fill:none;stroke:#645e46;stroke-width:1;stroke-linecap:round;stroke-linejoin:round;stroke-miterlimit:4;stroke-opacity:1" />
    <path
       sodipodi:type="arc"
       style="fill:#aeaeae;fill-opacity:1;stroke:#645e46;stroke-width:4.54550743;stroke-linecap:round;stroke-linejoin:round;stroke-miterlimit:4;stroke-opacity:1;stroke-dasharray:none"
       id="path6059"
       sodipodi:cx="33.082497"
       sodipodi:cy="88.367279"
       sodipodi:rx="5.0507627"
       sodipodi:ry="4.9244938"
       d="m 38.133259,88.367279 a 5.0507627,4.9244938 0 1 1 -10.101525,0 5.0507627,4.9244938 0 1 1 10.101525,0 z"
       transform="matrix(0.24255209,0,0,0.19954013,29.995454,631.29165)" />
    <path
       sodipodi:nodetypes="csc"
       inkscape:connector-curvature="0"
       id="path6100"
       d="m 36.08199,719.61081 c 0,-9.02675 -0.123336,-18.90724 5.588772,-19.09544 6.566391,-0.21635 5.558893,3.11516 6.554038,18.93238"
       style="fill:#aeaeae;fill-opacity:1;stroke:#645e46;stroke-width:1;stroke-opacity:1" />
    <path
       style="fill:#aeaeae;fill-opacity:1;stroke:#645e46;stroke-width:1;stroke-opacity:1"
       d="m 30.714286,720.75504 c 0,-7.43944 -0.09613,-15.58248 4.355971,-15.73758 5.117942,-0.17831 4.332683,2.56737 5.108314,15.60319"
       id="path6087"
       inkscape:connector-curvature="0"
       sodipodi:nodetypes="csc" />
    <path
       style="fill:#aeaeae;fill-opacity:1;stroke:#645e46;stroke-width:1;stroke-linecap:round;stroke-linejoin:round;stroke-miterlimit:4;stroke-opacity:1;stroke-dasharray:none"
       d="m 42.678945,685.04505 -0.252538,17.67419"
       id="path6106"
       inkscape:connector-curvature="0" />
    <path
       sodipodi:type="arc"
       style="fill:#aeaeae;fill-opacity:1;stroke:#645e46;stroke-width:1.15275013;stroke-linecap:round;stroke-linejoin:round;stroke-miterlimit:4;stroke-opacity:1;stroke-dasharray:none"
       id="path6108"
       sodipodi:cx="44.762386"
       sodipodi:cy="141.7791"
       sodipodi:rx="2.0834396"
       sodipodi:ry="3.7880721"
       d="m 46.845826,141.7791 a 2.0834396,3.7880721 0 1 1 -4.166879,0 2.0834396,3.7880721 0 1 1 4.166879,0 z"
       transform="matrix(1,0,0,0.75254015,0,585.00217)" />
    <path
       style="fill:none;stroke:#645e46;stroke-width:1;stroke-linecap:round;stroke-linejoin:round;stroke-miterlimit:4;stroke-opacity:1;stroke-dasharray:none"
       d="m 44.572981,688.94098 5.808377,3.23076 -5.42957,2.47059"
       id="path6110"
       inkscape:connector-curvature="0" />
    <path
       transform="matrix(-0.75409833,0,0,0.54281559,74.989337,620.87893)"
       d="m 46.845826,141.7791 a 2.0834396,3.7880721 0 1 1 -4.166879,0 2.0834396,3.7880721 0 1 1 4.166879,0 z"
       sodipodi:ry="3.7880721"
       sodipodi:rx="2.0834396"
       sodipodi:cy="141.7791"
       sodipodi:cx="44.762386"
       id="path6112"
       style="fill:#aeaeae;fill-opacity:1;stroke:#645e46;stroke-width:1.56300318;stroke-linecap:round;stroke-linejoin:round;stroke-miterlimit:4;stroke-opacity:1;stroke-dasharray:none"
       sodipodi:type="arc" />
    <path
       inkscape:connector-curvature="0"
       id="path6114"
       d="m 41.376925,695.85114 -4.380087,2.33039 4.09443,1.78206"
       style="fill:none;stroke:#645e46;stroke-width:1;stroke-linecap:round;stroke-linejoin:round;stroke-miterlimit:4;stroke-opacity:1;stroke-dasharray:none" />
    <path
       sodipodi:type="arc"
       style="fill:#aeaeae;fill-opacity:1;stroke:#645e46;stroke-width:0.81087887;stroke-linecap:round;stroke-linejoin:round;stroke-miterlimit:4;stroke-opacity:1;stroke-dasharray:none"
       id="path6116"
       sodipodi:cx="44.762386"
       sodipodi:cy="141.7791"
       sodipodi:rx="2.0834396"
       sodipodi:ry="3.7880721"
       d="m 46.845826,141.7791 a 2.0834396,3.7880721 0 1 1 -4.166879,0 2.0834396,3.7880721 0 1 1 4.166879,0 z"
       transform="matrix(-1.252573,-0.67548243,-0.763918,0.80222293,204.89776,602.97135)" />
    <path
       style="fill:none;stroke:#645e46;stroke-width:0.99999994;stroke-linecap:round;stroke-linejoin:round;stroke-miterlimit:4;stroke-opacity:1;stroke-dasharray:none"
       d="m 43.556578,683.66392 -10.555033,-0.47939 4.293005,6.30127"
       id="path6118"
       inkscape:connector-curvature="0" />
    <g
       id="g6153">
      <path
         transform="translate(0,540.36218)"
         inkscape:connector-curvature="0"
         id="path6151"
         d="m 16.160714,240.03571 c 1.607143,0 2.589286,-4.19643 2.589286,-4.19643 l 1.25,0 c 0,0 0.08929,4.375 1.785714,4.28572"
         style="fill:#aeaeae;fill-opacity:1;stroke:#645e46;stroke-width:1;stroke-linecap:round;stroke-linejoin:round;stroke-miterlimit:4;stroke-opacity:1;stroke-dasharray:none" />
      <g
         transform="matrix(0.19576057,0.03101731,-0.13671537,0.20219588,136.5675,613.99671)"
         id="g6132">
        <rect
           style="fill:#857fdd;fill-opacity:1;stroke:#645e46;stroke-width:4.77695704;stroke-linecap:round;stroke-linejoin:round;stroke-miterlimit:4;stroke-opacity:1;stroke-dasharray:none"
           id="rect6122"
           width="34.464287"
           height="34.107143"
           x="-51.785713"
           y="247.89285"
           transform="translate(0,540.36218)" />
        <path
           style="fill:#857fdd;fill-opacity:1;stroke:#645e46;stroke-width:4.77695704;stroke-linecap:round;stroke-linejoin:round;stroke-miterlimit:4;stroke-opacity:1;stroke-dasharray:none"
           d="m -40.357145,788.43361 0,33.92857"
           id="path6124"
           inkscape:connector-curvature="0" />
        <path
           inkscape:connector-curvature="0"
           id="path6126"
           d="m -29.285717,788.61218 0,33.92857"
           style="fill:#857fdd;fill-opacity:1;stroke:#645e46;stroke-width:4.77695704;stroke-linecap:round;stroke-linejoin:round;stroke-miterlimit:4;stroke-opacity:1;stroke-dasharray:none" />
        <path
           inkscape:connector-curvature="0"
           id="path6128"
           d="m -17.820162,799.95147 -33.92857,0"
           style="fill:#857fdd;fill-opacity:1;stroke:#645e46;stroke-width:4.77695704;stroke-linecap:round;stroke-linejoin:round;stroke-miterlimit:4;stroke-opacity:1;stroke-dasharray:none" />
        <path
           style="fill:#857fdd;fill-opacity:1;stroke:#645e46;stroke-width:4.77695704;stroke-linecap:round;stroke-linejoin:round;stroke-miterlimit:4;stroke-opacity:1;stroke-dasharray:none"
           d="m -17.998732,811.02289 -33.92857,0"
           id="path6130"
           inkscape:connector-curvature="0" />
      </g>
    </g>
    <g
       id="g6162"
       transform="translate(10.714286,7.9464286)">
      <path
         style="fill:#aeaeae;fill-opacity:1;stroke:#645e46;stroke-width:1;stroke-linecap:round;stroke-linejoin:round;stroke-miterlimit:4;stroke-opacity:1;stroke-dasharray:none"
         d="m 16.160714,240.03571 c 1.607143,0 2.589286,-4.19643 2.589286,-4.19643 l 1.25,0 c 0,0 0.08929,4.375 1.785714,4.28572"
         id="path6164"
         inkscape:connector-curvature="0"
         transform="translate(0,540.36218)" />
      <g
         id="g6166"
         transform="matrix(0.19576057,0.03101731,-0.13671537,0.20219588,136.5675,613.99671)">
        <rect
           transform="translate(0,540.36218)"
           y="247.89285"
           x="-51.785713"
           height="34.107143"
           width="34.464287"
           id="rect6168"
           style="fill:#857fdd;fill-opacity:1;stroke:#645e46;stroke-width:4.77695704;stroke-linecap:round;stroke-linejoin:round;stroke-miterlimit:4;stroke-opacity:1;stroke-dasharray:none" />
        <path
           inkscape:connector-curvature="0"
           id="path6170"
           d="m -40.357145,788.43361 0,33.92857"
           style="fill:#857fdd;fill-opacity:1;stroke:#645e46;stroke-width:4.77695704;stroke-linecap:round;stroke-linejoin:round;stroke-miterlimit:4;stroke-opacity:1;stroke-dasharray:none" />
        <path
           style="fill:#857fdd;fill-opacity:1;stroke:#645e46;stroke-width:4.77695704;stroke-linecap:round;stroke-linejoin:round;stroke-miterlimit:4;stroke-opacity:1;stroke-dasharray:none"
           d="m -29.285717,788.61218 0,33.92857"
           id="path6172"
           inkscape:connector-curvature="0" />
        <path
           style="fill:#857fdd;fill-opacity:1;stroke:#645e46;stroke-width:4.77695704;stroke-linecap:round;stroke-linejoin:round;stroke-miterlimit:4;stroke-opacity:1;stroke-dasharray:none"
           d="m -17.820162,799.95147 -33.92857,0"
           id="path6174"
           inkscape:connector-curvature="0" />
        <path
           inkscape:connector-curvature="0"
           id="path6176"
           d="m -17.998732,811.02289 -33.92857,0"
           style="fill:#857fdd;fill-opacity:1;stroke:#645e46;stroke-width:4.77695704;stroke-linecap:round;stroke-linejoin:round;stroke-miterlimit:4;stroke-opacity:1;stroke-dasharray:none" />
      </g>
    </g>
    <g
       transform="translate(12.767857,-3.8392857)"
       id="g6178">
      <path
         transform="translate(0,540.36218)"
         inkscape:connector-curvature="0"
         id="path6180"
         d="m 16.160714,240.03571 c 1.607143,0 2.589286,-4.19643 2.589286,-4.19643 l 1.25,0 c 0,0 0.08929,4.375 1.785714,4.28572"
         style="fill:#aeaeae;fill-opacity:1;stroke:#645e46;stroke-width:1;stroke-linecap:round;stroke-linejoin:round;stroke-miterlimit:4;stroke-opacity:1;stroke-dasharray:none" />
      <g
         transform="matrix(0.19576057,0.03101731,-0.13671537,0.20219588,136.5675,613.99671)"
         id="g6182">
        <rect
           style="fill:#857fdd;fill-opacity:1;stroke:#645e46;stroke-width:4.77695704;stroke-linecap:round;stroke-linejoin:round;stroke-miterlimit:4;stroke-opacity:1;stroke-dasharray:none"
           id="rect6184"
           width="34.464287"
           height="34.107143"
           x="-51.785713"
           y="247.89285"
           transform="translate(0,540.36218)" />
        <path
           style="fill:#857fdd;fill-opacity:1;stroke:#645e46;stroke-width:4.77695704;stroke-linecap:round;stroke-linejoin:round;stroke-miterlimit:4;stroke-opacity:1;stroke-dasharray:none"
           d="m -40.357145,788.43361 0,33.92857"
           id="path6186"
           inkscape:connector-curvature="0" />
        <path
           inkscape:connector-curvature="0"
           id="path6188"
           d="m -29.285717,788.61218 0,33.92857"
           style="fill:#857fdd;fill-opacity:1;stroke:#645e46;stroke-width:4.77695704;stroke-linecap:round;stroke-linejoin:round;stroke-miterlimit:4;stroke-opacity:1;stroke-dasharray:none" />
        <path
           inkscape:connector-curvature="0"
           id="path6190"
           d="m -17.820162,799.95147 -33.92857,0"
           style="fill:#857fdd;fill-opacity:1;stroke:#645e46;stroke-width:4.77695704;stroke-linecap:round;stroke-linejoin:round;stroke-miterlimit:4;stroke-opacity:1;stroke-dasharray:none" />
        <path
           style="fill:#857fdd;fill-opacity:1;stroke:#645e46;stroke-width:4.77695704;stroke-linecap:round;stroke-linejoin:round;stroke-miterlimit:4;stroke-opacity:1;stroke-dasharray:none"
           d="m -17.998732,811.02289 -33.92857,0"
           id="path6192"
           inkscape:connector-curvature="0" />
      </g>
    </g>
    <g
       id="g6194"
       transform="translate(25,1.5178572)">
      <path
         style="fill:#aeaeae;fill-opacity:1;stroke:#645e46;stroke-width:1;stroke-linecap:round;stroke-linejoin:round;stroke-miterlimit:4;stroke-opacity:1;stroke-dasharray:none"
         d="m 16.160714,240.03571 c 1.607143,0 2.589286,-4.19643 2.589286,-4.19643 l 1.25,0 c 0,0 0.08929,4.375 1.785714,4.28572"
         id="path6196"
         inkscape:connector-curvature="0"
         transform="translate(0,540.36218)" />
      <g
         id="g6198"
         transform="matrix(0.19576057,0.03101731,-0.13671537,0.20219588,136.5675,613.99671)">
        <rect
           transform="translate(0,540.36218)"
           y="247.89285"
           x="-51.785713"
           height="34.107143"
           width="34.464287"
           id="rect6200"
           style="fill:#857fdd;fill-opacity:1;stroke:#645e46;stroke-width:4.77695704;stroke-linecap:round;stroke-linejoin:round;stroke-miterlimit:4;stroke-opacity:1;stroke-dasharray:none" />
        <path
           inkscape:connector-curvature="0"
           id="path6202"
           d="m -40.357145,788.43361 0,33.92857"
           style="fill:#857fdd;fill-opacity:1;stroke:#645e46;stroke-width:4.77695704;stroke-linecap:round;stroke-linejoin:round;stroke-miterlimit:4;stroke-opacity:1;stroke-dasharray:none" />
        <path
           style="fill:#857fdd;fill-opacity:1;stroke:#645e46;stroke-width:4.77695704;stroke-linecap:round;stroke-linejoin:round;stroke-miterlimit:4;stroke-opacity:1;stroke-dasharray:none"
           d="m -29.285717,788.61218 0,33.92857"
           id="path6204"
           inkscape:connector-curvature="0" />
        <path
           style="fill:#857fdd;fill-opacity:1;stroke:#645e46;stroke-width:4.77695704;stroke-linecap:round;stroke-linejoin:round;stroke-miterlimit:4;stroke-opacity:1;stroke-dasharray:none"
           d="m -17.820162,799.95147 -33.92857,0"
           id="path6206"
           inkscape:connector-curvature="0" />
        <path
           inkscape:connector-curvature="0"
           id="path6208"
           d="m -17.998732,811.02289 -33.92857,0"
           style="fill:#857fdd;fill-opacity:1;stroke:#645e46;stroke-width:4.77695704;stroke-linecap:round;stroke-linejoin:round;stroke-miterlimit:4;stroke-opacity:1;stroke-dasharray:none" />
      </g>
    </g>
    <rect
       style="fill:#000000;fill-opacity:1;stroke:none"
       id="rect6210"
       width="64"
       height="64"
       x="0"
       y="796.36218"
       inkscape:export-filename="/home/jtmasse/git/selene/Project/gui_data/panneauxsolaires.png"
       inkscape:export-xdpi="90"
       inkscape:export-ydpi="90" />
    <rect
       style="fill:#aeaeae;fill-opacity:1;stroke:#645e46;stroke-width:1.12345934;stroke-linecap:round;stroke-linejoin:round;stroke-miterlimit:4;stroke-opacity:1;stroke-dasharray:none"
       id="rect6102"
       width="35.106979"
       height="35.106979"
       x="-955.8067"
       y="956.64539"
       transform="matrix(0.89725749,-0.44150764,0.89725749,0.44150764,0,0)" />
    <path
       sodipodi:type="arc"
       style="fill:#aeaeae;fill-opacity:1;stroke:#96862e;stroke-width:1.22159934;stroke-linecap:round;stroke-linejoin:round;stroke-miterlimit:4;stroke-opacity:1;stroke-dasharray:none"
       id="path6214"
       sodipodi:cx="19.285715"
       sodipodi:cy="54.142857"
       sodipodi:rx="4.6428571"
       sodipodi:ry="1.25"
       d="m 23.928572,54.142857 a 4.6428571,1.25 0 1 1 -9.285714,0 4.6428571,1.25 0 1 1 9.285714,0 z"
       transform="matrix(-0.81171547,0,0,0.82554105,47.689496,551.77596)" />
  </g>
</svg>
